<svg width="97" height="97" xmlns="http://www.w3.org/2000/svg" xmlns:xlink="http://www.w3.org/1999/xlink" xml:space="preserve" overflow="hidden"><g transform="translate(-1152 -392)"><g><g><g><g><path d="M1238.63 409 1245 409 1245 407 1238.63 407C1230.94 406.989 1223.54 409.891 1217.91 415.12L1214.35 418.22 1213.8 418.699C1213.11 418.398 1212.41 418.139 1211.69 417.922 1201.88 415.041 1191.6 420.651 1188.72 430.454 1188.72 430.465 1188.71 430.476 1188.71 430.487L1188.53 431.101 1188.3 431.89C1178.33 434.018 1171.97 443.827 1174.09 453.799 1174.24 454.47 1174.42 455.132 1174.64 455.783L1175.08 457.136C1171.93 459.832 1167.92 461.313 1163.77 461.312L1157 461.269 1157 463.269 1163.77 463.312C1168.76 463.32 1173.57 461.401 1177.19 457.955L1181.97 453.385 1189.02 446.3 1189.27 446.108C1189.34 446.052 1189.41 445.997 1189.49 445.944 1191.7 444.424 1194.72 444.981 1196.24 447.189 1196.24 447.19 1196.24 447.19 1196.24 447.191 1196.77 447.977 1197.06 448.896 1197.08 449.841L1197.1 450.185C1197.14 451.269 1196.72 452.321 1195.95 453.08L1188.74 460.31 1183.84 464.992C1178.43 470.142 1171.25 473.01 1163.78 473L1157 472.955 1157 474.955 1163.77 475C1171.49 475.013 1178.93 472.147 1184.65 466.963L1185.69 467.308 1186.38 467.537C1188.26 468.16 1190.23 468.477 1192.22 468.476L1192.27 468.476C1197.16 468.463 1201.84 466.517 1205.3 463.063L1205.64 462.709C1205.72 462.635 1205.79 462.571 1205.86 462.501 1207.25 461.093 1208.34 459.421 1209.08 457.583L1209.2 457.3C1209.67 456.199 1210.03 455.055 1210.28 453.884L1211.12 453.637 1211.75 453.449C1221.54 450.553 1227.13 440.27 1224.23 430.481 1224 429.705 1223.72 428.945 1223.39 428.206L1223.69 427.947 1226.66 425.394 1226.71 425.354 1226.75 425.313C1229.94 422.209 1234.22 420.479 1238.67 420.494L1245 420.494 1245 418.494 1238.68 418.494C1233.7 418.475 1228.92 420.408 1225.36 423.877L1222.45 426.377C1220.84 423.591 1218.52 421.278 1215.73 419.671L1219.25 416.606C1224.51 411.708 1231.44 408.99 1238.63 409ZM1192.24 443.09C1190.85 443.09 1189.5 443.512 1188.36 444.3 1188.24 444.382 1188.13 444.459 1188.04 444.536L1187.78 444.736 1187.61 444.892 1180.55 451.975 1176.7 455.656 1176.54 455.156C1173.67 446.509 1178.36 437.175 1187 434.309 1190.81 433.047 1194.95 433.215 1198.64 434.781L1199.02 434.943C1198.29 436.593 1197.77 438.325 1197.47 440.102L1197.47 440.134 1197.47 440.166C1197.26 441.829 1197.15 443.505 1197.16 445.182 1195.87 443.845 1194.1 443.09 1192.24 443.09ZM1210.18 438.869C1209.57 439.807 1209.19 440.878 1209.08 441.993 1208.96 443.122 1208.91 444.258 1208.92 445.393 1208.89 446.857 1208.86 448.653 1208.69 450.468 1208.63 452.547 1208.18 454.596 1207.36 456.506L1207.22 456.838C1206.58 458.431 1205.63 459.88 1204.43 461.099 1204.37 461.162 1203.94 461.587 1203.88 461.65 1200.8 464.727 1196.63 466.461 1192.28 466.474L1192.22 466.474C1190.45 466.475 1188.69 466.192 1187.01 465.636L1186.32 465.407 1186.63 465.098 1190.13 461.754 1197.37 454.49C1198.47 453.402 1199.09 451.922 1199.1 450.376L1199.12 449.476 1199.22 445.365 1199.22 444.413C1199.22 443.072 1199.31 441.733 1199.5 440.406 1199.75 438.941 1200.16 437.509 1200.73 436.137L1200.9 435.725 1201.19 435.045C1201.64 434.029 1202.26 433.092 1203.01 432.267 1204.92 430.366 1208.01 430.371 1209.91 432.28 1209.91 432.28 1209.91 432.28 1209.91 432.281 1211.69 434.08 1211.8 436.933 1210.18 438.869ZM1222.33 440.336C1220.76 445.723 1216.56 449.941 1211.18 451.526L1210.6 451.7C1210.63 451.332 1210.67 450.964 1210.68 450.593 1210.86 448.724 1210.89 446.9 1210.92 445.431L1210.92 445.377C1210.91 444.342 1210.95 443.307 1211.06 442.277 1211.07 441.447 1211.34 440.641 1211.85 439.985 1213.99 437.245 1213.76 433.346 1211.33 430.869 1208.65 428.177 1204.29 428.168 1201.6 430.85 1200.94 431.545 1200.38 432.32 1199.93 433.158L1199.83 433.117 1199.42 432.944C1197.14 431.971 1194.68 431.47 1192.19 431.473 1191.62 431.473 1191.05 431.504 1190.48 431.556L1190.63 431.05C1193.2 422.296 1202.37 417.279 1211.13 419.844 1219.88 422.408 1224.9 431.583 1222.33 440.337Z" fill="#8D1D1E" fill-rule="nonzero" fill-opacity="1"/></g></g></g></g></g></svg>