<svg width="97" height="96" xmlns="http://www.w3.org/2000/svg" xmlns:xlink="http://www.w3.org/1999/xlink" xml:space="preserve" overflow="hidden"><g transform="translate(-876 -312)"><g><g><g><g><path d="M925 335.006C929.418 335.006 933 331.424 933 327.006 933 322.588 929.418 319.006 925 319.006 920.582 319.006 917 322.588 917 327.006 917 331.424 920.582 335.006 925 335.006ZM925 321C928.314 321 931 323.686 931 327 931 330.314 928.314 333 925 333 921.686 333 919 330.314 919 327 919.005 323.688 921.688 321.005 925 321Z" fill="#8D1D1E" fill-rule="nonzero" fill-opacity="1"/><path d="M958.714 333.536 954.979 315.794 953.021 316.206 956.687 333.617C954.54 333.98 952.633 335.201 951.406 337L898.594 337C897.367 335.201 895.46 333.98 893.313 333.617L896.979 316.206 895.021 315.794 891.286 333.536C886.884 333.911 883.619 337.784 883.994 342.186 884.369 346.588 888.242 349.853 892.644 349.478 894.612 349.311 896.449 348.421 897.8 346.98 897.866 346.98 897.929 347 898 347L916 347 916 398C916 400.761 918.239 403 921 403 922.574 403 924.056 402.259 925 401 926.657 403.209 929.791 403.657 932 402 933.259 401.056 934 399.574 934 398L934 347 952 347C952.067 347 952.13 346.983 952.2 346.98 955.229 350.19 960.286 350.337 963.496 347.308 966.706 344.279 966.853 339.221 963.824 336.012 962.482 334.59 960.666 333.709 958.718 333.536ZM892 346.5C889.239 346.5 887 344.261 887 341.5 887 338.739 889.239 336.5 892 336.5 893.23 336.502 894.415 336.962 895.323 337.792 893.004 339.247 892.303 342.306 893.758 344.625 894.01 345.028 894.32 345.393 894.677 345.708 893.879 346.224 892.95 346.498 892 346.5ZM932 345 932 398C932 399.657 930.657 401 929 401 927.343 401 926 399.657 926 398L926 369 924 369 924 398C924 399.657 922.657 401 921 401 919.343 401 918 399.657 918 398L918 345 898 345C896.343 345 895 343.657 895 342 895 340.343 896.343 339 898 339L952 339C953.657 339 955 340.343 955 342 955 343.657 953.657 345 952 345ZM958 346.5C957.05 346.498 956.121 346.224 955.323 345.708 957.376 343.896 957.571 340.764 955.76 338.711 955.445 338.354 955.08 338.045 954.677 337.792 955.585 336.962 956.77 336.502 958 336.5 960.761 336.5 963 338.739 963 341.5 963 344.261 960.761 346.5 958 346.5Z" fill="#8D1D1E" fill-rule="nonzero" fill-opacity="1"/></g></g></g></g></g></svg>