<svg width="98" height="96" xmlns="http://www.w3.org/2000/svg" xmlns:xlink="http://www.w3.org/1999/xlink" xml:space="preserve" overflow="hidden"><g transform="translate(-1070 -220)"><g><g><g><g><path d="M1133 245C1133 237.268 1126.73 231 1119 231 1111.27 231 1105 237.268 1105 245 1105 252.732 1111.27 259 1119 259 1126.73 258.992 1132.99 252.729 1133 245ZM1112.03 254.75C1112.35 250.901 1115.73 248.04 1119.58 248.36 1122.98 248.643 1125.69 251.345 1125.97 254.75 1121.81 257.75 1116.19 257.75 1112.03 254.75ZM1115.73 243.057C1115.73 241.249 1117.2 239.783 1119.01 239.784 1120.81 239.785 1122.28 241.251 1122.28 243.059 1122.28 244.867 1120.81 246.333 1119 246.332 1119 246.332 1119 246.332 1119 246.332 1117.19 246.33 1115.73 244.865 1115.73 243.057ZM1107 245C1106.98 238.373 1112.34 232.987 1118.97 232.971 1125.6 232.955 1130.98 238.315 1131 244.942 1131.01 248.011 1129.84 250.966 1127.73 253.2 1127.05 250.416 1125.09 248.121 1122.44 247.016 1124.65 245.114 1124.9 241.784 1122.99 239.578 1121.09 237.372 1117.76 237.126 1115.56 239.027 1113.35 240.93 1113.1 244.26 1115.01 246.466 1115.18 246.663 1115.36 246.846 1115.56 247.016 1112.91 248.121 1110.95 250.416 1110.27 253.2 1108.17 250.984 1107 248.05 1107 245Z" fill="#8D1D1E" fill-rule="nonzero" fill-opacity="1"/><path d="M1129 295C1129 289.477 1124.52 285 1119 285 1113.48 285 1109 289.477 1109 295 1109 300.523 1113.48 305 1119 305 1124.52 304.994 1128.99 300.52 1129 295ZM1114.52 301.621C1114.79 299.145 1117.03 297.362 1119.5 297.639 1121.6 297.873 1123.25 299.526 1123.48 301.621 1120.78 303.46 1117.22 303.46 1114.52 301.621ZM1117.04 293.655C1117.04 292.573 1117.92 291.696 1119 291.696 1120.08 291.696 1120.96 292.573 1120.96 293.655 1120.96 294.737 1120.08 295.614 1119 295.614 1117.92 295.613 1117.04 294.737 1117.04 293.655ZM1111 295C1111 290.582 1114.57 286.997 1118.99 286.993 1123.41 286.989 1127 290.567 1127 294.986 1127 296.836 1126.36 298.63 1125.19 300.062 1124.63 298.43 1123.46 297.082 1121.92 296.31 1123.4 294.699 1123.29 292.195 1121.68 290.716 1120.07 289.238 1117.56 289.346 1116.08 290.957 1114.69 292.471 1114.69 294.796 1116.08 296.31 1114.54 297.082 1113.37 298.43 1112.81 300.062 1111.64 298.636 1111 296.846 1111 295Z" fill="#8D1D1E" fill-rule="nonzero" fill-opacity="1"/><path d="M1146 285C1140.48 285 1136 289.477 1136 295 1136 300.523 1140.48 305 1146 305 1151.52 305 1156 300.523 1156 295 1155.99 289.48 1151.52 285.006 1146 285ZM1141.52 301.621C1141.79 299.145 1144.03 297.362 1146.5 297.639 1148.6 297.873 1150.25 299.526 1150.48 301.621 1147.78 303.46 1144.22 303.46 1141.52 301.621ZM1144.04 293.655C1144.04 292.573 1144.92 291.696 1146 291.696 1147.08 291.696 1147.96 292.573 1147.96 293.655 1147.96 294.737 1147.08 295.614 1146 295.614 1144.92 295.613 1144.04 294.737 1144.04 293.655ZM1152.19 300.062C1151.63 298.43 1150.46 297.082 1148.92 296.31 1150.4 294.699 1150.29 292.195 1148.68 290.716 1147.07 289.238 1144.56 289.346 1143.08 290.957 1141.69 292.471 1141.69 294.796 1143.08 296.31 1141.54 297.082 1140.37 298.43 1139.81 300.062 1137.01 296.644 1137.51 291.604 1140.93 288.804 1144.35 286.004 1149.39 286.506 1152.19 289.924 1154.6 292.872 1154.6 297.114 1152.19 300.062Z" fill="#8D1D1E" fill-rule="nonzero" fill-opacity="1"/><path d="M1092 305C1097.52 305 1102 300.523 1102 295 1102 289.477 1097.52 285 1092 285 1086.48 285 1082 289.477 1082 295 1082.01 300.52 1086.48 304.994 1092 305ZM1087.52 301.621C1087.79 299.145 1090.03 297.362 1092.5 297.639 1094.6 297.873 1096.25 299.526 1096.48 301.621 1093.78 303.46 1090.22 303.46 1087.52 301.621ZM1090.04 293.655C1090.04 292.573 1090.92 291.696 1092 291.696 1093.08 291.696 1093.96 292.573 1093.96 293.655 1093.96 294.737 1093.08 295.614 1092 295.614 1090.92 295.613 1090.04 294.737 1090.04 293.655ZM1092 287C1096.42 286.997 1100 290.575 1100 294.99 1100 296.839 1099.36 298.632 1098.19 300.062 1097.63 298.43 1096.46 297.082 1094.92 296.31 1096.4 294.699 1096.29 292.195 1094.68 290.716 1093.07 289.238 1090.56 289.346 1089.08 290.957 1087.69 292.471 1087.69 294.796 1089.08 296.31 1087.54 297.082 1086.37 298.43 1085.81 300.062 1083.01 296.646 1083.51 291.609 1086.93 288.811 1088.36 287.639 1090.15 286.999 1092 287Z" fill="#8D1D1E" fill-rule="nonzero" fill-opacity="1"/><path d="M1147 282 1147 271 1120 271 1120 262 1118 262 1118 271 1091 271 1091 282 1093 282 1093 273 1118 273 1118 282 1120 282 1120 273 1145 273 1145 282 1147 282Z" fill="#8D1D1E" fill-rule="nonzero" fill-opacity="1"/></g></g></g></g></g></svg>