<svg width="97" height="98" xmlns="http://www.w3.org/2000/svg" xmlns:xlink="http://www.w3.org/1999/xlink" xml:space="preserve" overflow="hidden"><g transform="translate(-940 -470)"><g><g><g><g><path d="M1009 491 1009 486C1009 485.448 1008.55 485 1008 485 1007.45 485 1007 485.448 1007 486L1007 491 971 491 971 486C971 485.448 970.552 485 970 485 969.448 485 969 485.448 969 486L969 491 955 491 955 553 1023 553 1023 491ZM1021 551 957 551 957 507 1021 507ZM957 505 957 493 969 493 969 497C969 497.552 969.448 498 970 498 970.552 498 971 497.552 971 497L971 493 1007 493 1007 497C1007 497.552 1007.45 498 1008 498 1008.55 498 1009 497.552 1009 497L1009 493 1021 493 1021 505Z" fill="#8D1D1E" fill-rule="nonzero" fill-opacity="1"/><path d="M982 545 1015 545 1015 513 963 513 963 545 982 545ZM982 543 982 535 996 535 996 543ZM982 525 996 525 996 533 982 533ZM980 533 965 533 965 525 980 525ZM998 525 1013 525 1013 533 998 533ZM998 543 998 535 1013 535 1013 543ZM1013 515 1013 523 998 523 998 515ZM996 515 996 523 982 523 982 515ZM980 515 980 523 965 523 965 515ZM965 543 965 535 980 535 980 543Z" fill="#8D1D1E" fill-rule="nonzero" fill-opacity="1"/></g></g></g></g></g></svg>