<svg width="98" height="98" xmlns="http://www.w3.org/2000/svg" xmlns:xlink="http://www.w3.org/1999/xlink" xml:space="preserve" overflow="hidden"><g transform="translate(-1106 -118)"><g><g><g><g><path d="M1129.07 172.417 1130.49 173.832 1137.08 167.241C1137.47 166.849 1137.61 166.275 1137.45 165.746 1135.85 160.429 1136.8 154.97 1137.63 150.154L1137.73 149.538C1138.5 145.11 1139.16 141.286 1137.64 138.88 1137.22 138.194 1137.32 137.303 1137.89 136.732 1137.99 136.638 1138.09 136.554 1138.21 136.483 1138.48 136.309 1138.79 136.216 1139.11 136.217 1139.25 136.217 1139.39 136.234 1139.53 136.268 1139.97 136.373 1140.36 136.65 1140.6 137.04 1142.69 140.396 1143.53 145.94 1142.65 151.2L1142.59 151.612C1142.44 152.426 1142.98 153.207 1143.79 153.359 1143.88 153.377 1143.98 153.385 1144.07 153.385 1144.34 153.385 1144.6 153.313 1144.83 153.176 1146.96 151.953 1148.96 150.512 1150.79 148.876 1150.89 148.772 1150.98 148.657 1151.06 148.532L1161.81 130.332C1162.07 129.886 1162.5 129.563 1163 129.432 1163.16 129.389 1163.33 129.368 1163.49 129.368 1164.58 129.374 1165.46 130.262 1165.46 131.353 1165.45 131.677 1165.37 131.996 1165.22 132.281L1156.29 147.411C1155.86 148.12 1156.09 149.042 1156.8 149.471 1157.39 149.828 1158.15 149.736 1158.64 149.247L1171.44 135.81C1171.81 135.494 1172.27 135.319 1172.76 135.317 1173.33 135.315 1173.87 135.565 1174.24 136 1174.86 136.73 1174.86 137.803 1174.24 138.534L1162.25 151.034 1162.22 151.058C1161.64 151.545 1161.5 152.376 1161.88 153.03 1162.31 153.741 1163.24 153.963 1163.96 153.526 1164.01 153.49 1164.07 153.45 1164.12 153.406L1178.02 144.519C1178.93 143.951 1180.13 144.215 1180.72 145.114 1180.99 145.552 1181.08 146.079 1180.98 146.585 1180.9 146.948 1180.72 147.281 1180.46 147.543 1180.35 147.648 1180.23 147.741 1180.11 147.82L1164.19 157.942C1163.48 158.378 1163.26 159.302 1163.7 160.007 1164.06 160.59 1164.77 160.854 1165.42 160.649L1178.81 156.534C1179.02 156.451 1179.25 156.409 1179.48 156.409 1180.45 156.414 1181.27 157.124 1181.42 158.083 1181.5 158.585 1181.37 159.098 1181.08 159.511 1180.85 159.824 1180.54 160.065 1180.19 160.204 1180.1 160.238 1180.01 160.266 1179.91 160.287L1165.66 164.667C1165.42 164.739 1165.21 164.867 1165.04 165.039L1164.56 165.53C1163.64 166.445 1162.64 167.371 1161.59 168.266 1161.59 168.266 1161.59 168.276 1161.59 168.274L1165.69 167.221C1165.79 167.127 1165.89 167.026 1165.97 166.944L1166.37 166.544 1180.44 162.22C1180.59 162.181 1180.75 162.133 1180.9 162.076 1181.68 161.772 1182.36 161.227 1182.81 160.518 1183.09 160.097 1183.28 159.623 1183.37 159.126 1183.78 156.967 1182.35 154.887 1180.2 154.482 1179.96 154.436 1179.71 154.414 1179.47 154.413 1179.02 154.413 1178.58 154.491 1178.16 154.644L1168.44 157.631C1168.44 157.632 1168.43 157.629 1168.43 157.624 1168.43 157.62 1168.43 157.615 1168.43 157.613L1181.18 149.519C1181.43 149.362 1181.66 149.178 1181.87 148.968 1182.4 148.433 1182.77 147.754 1182.93 147.013 1183.4 144.885 1182.05 142.783 1179.92 142.319 1179.63 142.258 1179.35 142.227 1179.06 142.229 1178.31 142.229 1177.58 142.439 1176.95 142.836L1166.52 149.509C1166.51 149.512 1166.51 149.511 1166.5 149.506 1166.5 149.503 1166.5 149.497 1166.5 149.494L1175.68 139.921 1175.73 139.876 1175.79 139.806C1176.56 138.918 1176.89 137.723 1176.66 136.566 1176.31 134.687 1174.67 133.325 1172.76 133.317 1171.8 133.32 1170.87 133.664 1170.14 134.287L1169.53 134.911 1160.28 144.619C1160.27 144.623 1160.27 144.624 1160.26 144.621 1160.26 144.618 1160.26 144.611 1160.26 144.607L1166.94 133.291 1166.95 133.269 1166.96 133.247C1168.02 131.323 1167.31 128.907 1165.39 127.852 1164.81 127.532 1164.15 127.363 1163.49 127.362 1163.15 127.362 1162.81 127.406 1162.48 127.494 1161.81 127.672 1161.19 128.026 1160.7 128.519 1160.46 128.757 1160.25 129.026 1160.08 129.319L1149.37 147.448C1147.91 148.751 1146.33 149.922 1144.66 150.948 1144.66 150.951 1144.65 150.949 1144.65 150.945 1144.65 150.943 1144.64 150.94 1144.65 150.938 1145.46 145.33 1144.58 139.646 1142.3 135.982 1141.61 134.885 1140.41 134.218 1139.11 134.215 1138.4 134.213 1137.71 134.419 1137.11 134.806 1136.88 134.952 1136.67 135.122 1136.48 135.315 1135.25 136.54 1135.03 138.45 1135.94 139.925 1137.06 141.701 1136.43 145.341 1135.76 149.195L1135.66 149.829C1134.81 154.762 1133.83 160.363 1135.46 166.038Z" fill="#8D1D1E" fill-rule="nonzero" fill-opacity="1"/><path d="M1180.4 187.02 1180.46 187.02C1181.91 186.92 1183.18 186.026 1183.76 184.7 1184.65 182.689 1183.74 180.338 1181.73 179.45 1181.31 179.264 1180.86 179.152 1180.4 179.12L1180.3 179.112 1180.2 179.112 1166.12 179.446C1166.12 179.446 1166.11 179.441 1166.11 179.436 1166.11 179.43 1166.12 179.426 1166.12 179.426L1178.85 176.147 1178.87 176.141 1178.9 176.133C1181 175.535 1182.22 173.344 1181.63 171.239 1181.04 169.164 1178.89 167.942 1176.81 168.49L1156.41 173.74C1154.45 173.625 1152.51 173.338 1150.6 172.883 1150.6 172.88 1150.59 172.874 1150.6 172.869 1150.6 172.868 1150.6 172.867 1150.6 172.866 1155.14 169.478 1158.54 164.836 1159.52 160.634 1159.74 159.673 1159.58 158.663 1159.06 157.823 1158.53 156.957 1157.67 156.345 1156.68 156.133 1156.42 156.073 1156.14 156.043 1155.87 156.044 1154.14 156.041 1152.63 157.234 1152.23 158.923 1151.77 160.97 1148.75 163.098 1145.55 165.352L1145.03 165.727C1140.93 168.609 1136.29 171.881 1133.42 177.043L1124.4 177.043 1124.4 179.043 1133.72 179.043C1134.27 179.04 1134.78 178.733 1135.04 178.243 1137.67 173.349 1142.19 170.16 1146.19 167.343L1146.7 166.979C1150.37 164.389 1153.55 162.153 1154.17 159.379 1154.39 158.442 1155.33 157.86 1156.27 158.079 1156.27 158.079 1156.27 158.079 1156.27 158.079 1156.72 158.178 1157.11 158.461 1157.35 158.86 1157.59 159.25 1157.67 159.72 1157.57 160.168 1156.67 164.017 1153.31 168.539 1148.97 171.636L1148.67 171.876C1147.98 172.345 1147.81 173.279 1148.28 173.962 1148.49 174.261 1148.79 174.476 1149.15 174.566 1151.52 175.209 1153.95 175.604 1156.4 175.743 1156.55 175.744 1156.69 175.728 1156.84 175.695L1177.31 170.426C1178.36 170.15 1179.43 170.775 1179.71 171.823 1179.98 172.859 1179.37 173.922 1178.34 174.212L1161.33 178.6C1160.52 178.799 1160.03 179.613 1160.23 180.417 1160.4 181.086 1161 181.556 1161.69 181.556L1180.24 181.116C1181.32 181.173 1182.15 182.095 1182.09 183.176 1182.04 184.156 1181.27 184.947 1180.29 185.025L1162.97 185.387 1162.93 185.387C1162.21 185.326 1161.54 185.773 1161.32 186.465 1161.08 187.267 1161.54 188.106 1162.34 188.341 1162.43 188.367 1162.53 188.385 1162.62 188.394L1178.73 191.934C1179.78 192.166 1180.45 193.209 1180.22 194.264 1180.11 194.771 1179.8 195.212 1179.36 195.492 1179.05 195.694 1178.69 195.802 1178.32 195.801 1178.17 195.801 1178.02 195.784 1177.87 195.749L1159.46 191.634C1158.66 191.443 1157.85 191.941 1157.66 192.747 1157.5 193.416 1157.81 194.107 1158.42 194.424L1170.8 200.977C1171.78 201.434 1172.21 202.601 1171.75 203.584 1171.67 203.767 1171.56 203.936 1171.42 204.084 1171.17 204.364 1170.84 204.562 1170.48 204.652 1170.05 204.764 1169.59 204.727 1169.18 204.546 1169.09 204.508 1169.01 204.463 1168.93 204.412L1155.75 197.429C1155.53 197.316 1155.29 197.258 1155.05 197.258L1154.36 197.258C1147.42 197.258 1138.56 195.834 1136.41 191.823 1136.15 191.339 1135.64 191.039 1135.09 191.042L1124.4 191.042 1124.4 193.042 1134.8 193.042C1138.25 198.804 1150.61 199.258 1154.36 199.258L1154.93 199.258 1167.94 206.151C1168.07 206.233 1168.21 206.307 1168.36 206.372 1169.03 206.669 1169.76 206.776 1170.49 206.682 1171.53 206.559 1172.47 206.017 1173.1 205.182 1173.95 204.081 1174.17 202.616 1173.67 201.319 1173.31 200.376 1172.6 199.61 1171.68 199.182L1162.7 194.426C1162.69 194.424 1162.69 194.418 1162.69 194.413 1162.7 194.408 1162.7 194.405 1162.71 194.407L1177.44 197.695C1177.73 197.762 1178.02 197.796 1178.32 197.795 1179.08 197.796 1179.82 197.577 1180.45 197.164 1182.29 195.981 1182.82 193.533 1181.64 191.696 1181.07 190.822 1180.19 190.205 1179.18 189.978L1167.08 187.319C1167.07 187.319 1167.07 187.314 1167.07 187.309 1167.07 187.303 1167.07 187.299 1167.08 187.299L1180.34 187.022Z" fill="#8D1D1E" fill-rule="nonzero" fill-opacity="1"/></g></g></g></g></g></svg>