<svg width="98" height="98" xmlns="http://www.w3.org/2000/svg" xmlns:xlink="http://www.w3.org/1999/xlink" xml:space="preserve" overflow="hidden"><g transform="translate(-1078 -230)"><g><g><g><g><path d="M1121.64 271.6 1121.64 271.3C1122.04 260.194 1113.36 250.867 1102.26 250.469 1098.39 250.33 1094.56 251.31 1091.24 253.291 1084.84 256.984 1081.03 263.922 1081.33 271.3 1081.32 277.608 1084.24 283.566 1089.23 287.416L1089.23 304.326 1110.44 306.316 1110.44 296.268 1113.74 296.268C1115.83 296.253 1117.84 295.434 1119.34 293.98 1120.82 292.467 1121.65 290.429 1121.64 288.31L1121.64 284.33 1124.54 284.33C1126.24 284.13 1127.84 282.142 1126.24 279.654ZM1124.84 281.957C1124.75 282.143 1124.58 282.28 1124.38 282.334L1119.64 282.334 1119.64 288.314C1119.66 289.902 1119.04 291.43 1117.93 292.566 1116.8 293.647 1115.31 294.257 1113.74 294.272L1108.44 294.272 1108.44 304.12 1091.23 302.505 1091.23 286.434 1090.46 285.834C1085.95 282.363 1083.32 276.99 1083.33 271.3L1083.33 271.218C1083.04 264.575 1086.48 258.325 1092.25 255.018 1097.97 251.611 1105.09 251.609 1110.81 255.011 1116.5 258.391 1119.89 264.608 1119.65 271.221L1119.65 272.132 1119.91 272.593 1124.51 280.651 1124.54 280.697 1124.56 280.742C1124.75 281.023 1125.03 281.562 1124.84 281.953Z" fill="#8D1D1E" fill-rule="nonzero" fill-opacity="1"/><path d="M1112.84 268.015C1111.47 268.022 1110.36 269.142 1110.37 270.515 1110.37 271.888 1111.49 272.996 1112.87 272.989 1114.24 272.982 1115.34 271.87 1115.34 270.502 1115.35 269.138 1114.25 268.025 1112.89 268.015 1112.87 268.015 1112.86 268.015 1112.84 268.015Z" fill="#8D1D1E" fill-rule="nonzero" fill-opacity="1"/><path d="M1156.4 268.015C1155.03 268.022 1153.92 269.142 1153.93 270.515 1153.93 271.888 1155.05 272.996 1156.43 272.989 1157.8 272.982 1158.9 271.869 1158.9 270.5 1158.91 269.136 1157.81 268.024 1156.45 268.015 1156.43 268.015 1156.42 268.015 1156.4 268.015Z" fill="#8D1D1E" fill-rule="nonzero" fill-opacity="1"/><path d="M1173.33 275.8C1173.33 259.231 1163.93 245.8 1152.33 245.8 1140.73 245.8 1131.33 259.231 1131.33 275.8 1131.33 291.889 1140.2 305.018 1151.33 305.764L1151.33 311.8 1143.33 311.8 1143.33 313.8 1161.33 313.8 1161.33 311.8 1153.33 311.8 1153.33 305.764C1164.47 305.018 1173.33 291.889 1173.33 275.8ZM1160.8 300.857 1160.8 294.268 1155.5 294.268C1153.94 294.253 1152.44 293.643 1151.31 292.562 1150.2 291.426 1149.59 289.897 1149.6 288.31L1149.6 282.33 1144.86 282.33C1144.66 282.276 1144.49 282.139 1144.39 281.953 1144.21 281.562 1144.49 281.023 1144.68 280.737L1144.7 280.692 1144.73 280.646 1149.33 272.588 1149.59 272.127 1149.59 271.257 1149.59 271.216C1149.35 264.609 1152.73 258.396 1158.42 255.016 1159.95 254.113 1161.62 253.44 1163.35 253.016 1168.18 258.099 1171.33 266.416 1171.33 275.807 1171.33 286.759 1167.04 296.262 1160.8 300.857ZM1133.33 275.8C1133.33 260.361 1141.86 247.8 1152.33 247.8 1155.76 247.861 1159.06 249.136 1161.64 251.4 1160.16 251.866 1158.74 252.501 1157.4 253.291 1151.08 257.046 1147.32 263.955 1147.6 271.3L1147.6 271.6 1143 279.658C1141.4 282.146 1143 284.135 1144.7 284.334L1147.6 284.334 1147.6 288.314C1147.59 290.434 1148.42 292.472 1149.9 293.984 1151.4 295.438 1153.41 296.257 1155.5 296.272L1158.8 296.272 1158.8 302.133C1156.82 303.217 1154.59 303.79 1152.33 303.8 1141.86 303.8 1133.33 291.239 1133.33 275.8Z" fill="#8D1D1E" fill-rule="nonzero" fill-opacity="1"/></g></g></g></g></g></svg>
