<svg width="96" height="97" xmlns="http://www.w3.org/2000/svg" xmlns:xlink="http://www.w3.org/1999/xlink" xml:space="preserve" overflow="hidden"><g transform="translate(-456 -193)"><g><g><g><g><path d="M549.707 224.293 542.707 217.293C542.31 216.909 541.677 216.92 541.293 217.318 540.919 217.705 540.919 218.32 541.293 218.707L546.46 223.874C546.464 223.878 546.464 223.884 546.46 223.888 546.458 223.89 546.456 223.891 546.453 223.891L525.718 223.891C521.808 223.893 517.938 224.683 514.34 226.214 509.335 219.63 502.298 214.88 494.32 212.7 500.377 207.646 508.017 204.881 515.905 204.886 516.457 204.886 516.905 204.438 516.905 203.886 516.905 203.334 516.457 202.886 515.905 202.886 507.043 202.882 498.497 206.177 491.931 212.129 484.047 210.538 475.86 211.52 468.575 214.929 468.071 215.154 467.845 215.746 468.07 216.25 468.296 216.754 468.887 216.98 469.391 216.755 469.402 216.75 469.414 216.745 469.425 216.739 474.14 214.521 479.289 213.377 484.5 213.391 486.397 213.392 488.29 213.545 490.163 213.848 476.299 228.164 476.665 251.009 490.982 264.873 491.263 265.146 491.549 265.414 491.839 265.677 489.326 270.651 483.946 273.498 478.42 272.777 471.802 271.789 466.927 266.069 467 259.378L467 243.438C467 243.432 467.005 243.428 467.01 243.428 467.013 243.428 467.015 243.429 467.017 243.431L472.293 248.707C472.69 249.091 473.323 249.08 473.707 248.682 474.081 248.295 474.081 247.68 473.707 247.293L466.707 240.293C466.316 239.903 465.684 239.903 465.293 240.293L458.293 247.293C457.909 247.69 457.92 248.323 458.318 248.707 458.705 249.081 459.319 249.081 459.707 248.707L464.983 243.431C464.987 243.427 464.993 243.427 464.997 243.431 464.999 243.433 465 243.435 465 243.438L465 259.343C464.914 266.965 470.411 273.505 477.934 274.733 484.197 275.646 490.367 272.566 493.404 267.013 499.763 272.183 507.709 275.004 515.905 275L528.562 275C528.568 275 528.572 275.005 528.572 275.01 528.572 275.013 528.571 275.015 528.569 275.017L523.293 280.293C522.896 280.677 522.885 281.31 523.268 281.707 523.652 282.104 524.285 282.115 524.682 281.732 524.691 281.724 524.699 281.715 524.707 281.707L531.707 274.707C532.097 274.316 532.097 273.684 531.707 273.293L524.707 266.293C524.31 265.909 523.677 265.92 523.293 266.318 522.919 266.705 522.919 267.32 523.293 267.707L528.569 272.983C528.573 272.987 528.573 272.993 528.569 272.997 528.567 272.999 528.565 273 528.562 273L515.905 273C507.991 273.005 500.329 270.221 494.263 265.138 494.453 264.647 494.617 264.146 494.755 263.638L499.397 246.138C501.423 238.541 506.634 232.191 513.69 228.721 517.735 234.548 519.931 241.459 519.99 248.552 519.99 248.558 519.985 248.563 519.979 248.562 519.976 248.562 519.974 248.561 519.972 248.56L514.705 243.293C514.308 242.909 513.675 242.92 513.291 243.318 512.917 243.705 512.917 244.32 513.291 244.707L520.291 251.707C520.682 252.097 521.315 252.097 521.705 251.707L528.705 244.707C529.089 244.31 529.078 243.677 528.68 243.293 528.293 242.919 527.678 242.919 527.291 243.293L522.007 248.577C522.003 248.581 521.997 248.581 521.993 248.577 521.991 248.575 521.99 248.573 521.99 248.57 521.938 241.19 519.696 233.992 515.55 227.887 518.779 226.572 522.232 225.893 525.718 225.887L546.67 225.887C546.675 225.887 546.68 225.891 546.681 225.896 546.681 225.899 546.68 225.902 546.678 225.904L541.293 231.289C540.896 231.673 540.885 232.306 541.268 232.703 541.652 233.1 542.285 233.111 542.682 232.728 542.691 232.719 542.699 232.711 542.707 232.703L549.707 225.703C550.095 225.313 550.095 224.683 549.707 224.293ZM497.464 245.626 492.821 263.126C492.771 263.317 492.705 263.5 492.647 263.687 478.982 250.749 478.392 229.182 491.331 215.517 491.719 215.107 492.118 214.706 492.526 214.316 500.443 216.165 507.487 220.673 512.484 227.087 505.068 230.848 499.605 237.591 497.464 245.626Z" fill="#8D1D1E" fill-rule="nonzero" fill-opacity="1"/></g></g></g></g></g></svg>