<svg width="96" height="98" xmlns="http://www.w3.org/2000/svg" xmlns:xlink="http://www.w3.org/1999/xlink" xml:space="preserve" overflow="hidden"><g transform="translate(-1136 -298)"><g><g><g><g><path d="M1157.5 345.729C1164.51 345.729 1170 342.554 1170 338.5L1170 337.5 1165.9 337.5 1159.43 312.525 1180 320.962C1179.99 322.59 1180.98 324.059 1182.48 324.677 1182.65 324.74 1182.82 324.792 1183 324.833L1183 380 1176 380C1173.79 380 1172 381.791 1172 384L1174 384C1174 382.895 1174.9 382 1176 382L1192 382C1193.1 382 1194 382.895 1194 384L1196 384C1196 381.791 1194.21 380 1192 380L1185 380 1185 324.833C1185.18 324.79 1185.37 324.734 1185.54 324.666 1186.04 324.46 1186.48 324.156 1186.86 323.774L1209 332.856 1202.1 359.5 1198 359.5 1198 360.5C1198 364.554 1203.49 367.729 1210.5 367.729 1217.51 367.729 1223 364.554 1223 360.5L1223 359.5 1218.9 359.5 1212.35 334.229 1214.15 334.968C1214.66 335.178 1215.25 334.933 1215.46 334.422 1215.67 333.911 1215.42 333.327 1214.91 333.117L1187.84 322.017C1188.47 319.986 1187.33 317.829 1185.3 317.201 1185.2 317.17 1185.1 317.144 1185 317.121L1185 308C1185 307.448 1184.55 307 1184 307 1183.45 307 1183 307.448 1183 308L1183 317.119C1181.95 317.391 1181.06 318.077 1180.53 319.019L1154.65 308.4C1154.15 308.177 1153.56 308.405 1153.33 308.911 1153.11 309.416 1153.34 310.006 1153.84 310.229 1153.86 310.237 1153.88 310.244 1153.89 310.25L1155.94 311.091 1149.1 337.5 1145 337.5 1145 338.5C1145 342.554 1150.49 345.729 1157.5 345.729ZM1220.8 361.5C1219.83 363.875 1215.51 365.729 1210.5 365.729 1205.49 365.729 1201.17 363.875 1200.2 361.5ZM1216.84 359.5 1204.16 359.5 1210.49 335.093C1210.49 335.087 1210.49 335.083 1210.5 335.083 1210.51 335.083 1210.51 335.087 1210.51 335.093ZM1182.15 320.217C1182.45 319.492 1183.15 319.011 1183.93 318.986 1183.96 318.986 1183.98 319 1184 319 1184.02 319 1184.05 318.986 1184.08 318.984 1184.31 318.991 1184.54 319.039 1184.76 319.125 1185.79 319.525 1186.3 320.684 1185.9 321.713 1185.5 322.743 1184.34 323.254 1183.31 322.854 1183.29 322.845 1183.26 322.835 1183.24 322.825 1182.22 322.406 1181.73 321.238 1182.15 320.216ZM1157.51 313.093 1163.84 337.5 1151.16 337.5 1157.49 313.093C1157.49 313.087 1157.49 313.083 1157.5 313.083 1157.51 313.083 1157.51 313.087 1157.51 313.093ZM1167.8 339.5C1166.83 341.875 1162.51 343.729 1157.5 343.729 1152.49 343.729 1148.17 341.875 1147.2 339.5Z" fill="#8D1D1E" fill-rule="nonzero" fill-opacity="1"/><path d="M1160 385 1208 385 1208 387 1160 387Z" fill="#8D1D1E" fill-rule="nonzero" fill-opacity="1"/></g></g></g></g></g></svg>