<svg width="96" height="96" xmlns="http://www.w3.org/2000/svg" xmlns:xlink="http://www.w3.org/1999/xlink" xml:space="preserve" overflow="hidden"><g transform="translate(-592 -312)"><g><path d="M634.565 360.215C629.954 362.422 624.453 361.487 620.832 357.879L613.137 350.184C608.426 345.477 608.423 337.841 613.13 333.13 617.838 328.419 625.473 328.416 630.184 333.123 630.187 333.125 630.189 333.128 630.191 333.13L637.891 340.83C641.499 344.451 642.435 349.953 640.227 354.563L641.718 356.054C644.679 350.582 643.695 343.815 639.3 339.411L631.6 331.716C626.033 326.304 617.132 326.429 611.719 331.996 606.413 337.454 606.415 346.144 611.723 351.6L619.423 359.3C623.826 363.694 630.591 364.675 636.061 361.713Z" fill="#8D1D1E" fill-rule="nonzero" fill-opacity="1"/><path d="M668.291 368.4 660.6 360.707C656.195 356.316 649.432 355.336 643.962 358.294L645.452 359.785C650.062 357.568 655.569 358.505 659.186 362.121L666.88 369.821C671.65 374.468 671.75 382.103 667.103 386.874 662.455 391.644 654.821 391.744 650.05 387.096 649.974 387.022 649.898 386.946 649.824 386.87L642.124 379.17C638.516 375.549 637.58 370.047 639.788 365.437L638.3 363.951C635.34 369.421 636.321 376.185 640.712 380.589L648.412 388.289C653.904 393.778 662.807 393.776 668.296 388.284 673.785 382.792 673.783 373.889 668.291 368.4Z" fill="#8D1D1E" fill-rule="nonzero" fill-opacity="1"/><path d="M650.614 371.607C650.349 371.607 650.094 371.501 649.907 371.314L628.694 350.1C628.297 349.716 628.286 349.083 628.669 348.686 629.053 348.289 629.686 348.278 630.083 348.661 630.092 348.669 630.1 348.678 630.108 348.686L651.321 369.9C651.711 370.291 651.711 370.924 651.321 371.314 651.133 371.502 650.879 371.607 650.614 371.607Z" fill="#8D1D1E" fill-rule="nonzero" fill-opacity="1"/></g></g></svg>