<svg xmlns="http://www.w3.org/2000/svg" width="424" height="262" viewBox="0 0 424 262">
<g>
<path d="M 139.00 150.73 C139.00,153.75 134.99,151.41 128.13,144.37 L 120.76 136.80 L 108.96 148.48 L 99.97 139.19 C95.03,134.08 89.75,127.56 88.25,124.70 C85.87,120.16 85.52,118.36 85.51,110.50 C85.50,102.08 85.73,101.09 89.00,95.16 L 92.50 88.82 L 88.00 84.79 C77.17,75.11 68.70,71.45 54.56,70.36 C47.13,69.79 46.00,69.46 46.00,67.85 C46.00,66.26 46.81,66.00 51.75,66.02 C65.63,66.06 77.60,70.57 88.78,79.95 L 95.87 85.91 L 102.19 82.72 C107.70,79.95 109.52,79.54 116.50,79.53 C127.57,79.50 132.79,82.20 144.48,93.97 L 153.47 103.01 L 138.23 118.27 L 122.99 133.54 L 130.99 141.49 C135.40,145.87 139.00,150.03 139.00,150.73 ZM 240.38 208.46 C239.93,209.63 238.30,209.98 233.64,209.92 C220.61,209.74 208.92,205.04 198.07,195.59 C191.32,189.72 190.54,189.31 189.43,191.11 C188.49,192.64 179.32,196.57 174.74,197.41 C169.89,198.29 160.15,196.37 155.64,193.64 C152.13,191.50 134.00,174.32 134.00,173.12 C134.00,172.77 143.90,162.59 155.99,150.51 L 177.99 128.53 L 187.03 137.51 C198.97,149.38 201.51,154.38 201.47,166.00 C201.45,173.75 201.14,175.06 198.02,180.87 L 194.59 187.24 L 199.05 191.10 C209.84,200.47 219.49,204.79 231.50,205.66 C240.26,206.29 241.11,206.56 240.38,208.46 ZM 251.56 122.90 C250.43,124.72 249.77,124.29 242.26,116.77 L 235.03 109.55 L 229.96 114.52 L 224.89 119.50 L 215.52 109.90 C207.70,101.87 205.90,99.42 204.58,94.97 C203.71,92.03 203.00,88.23 203.00,86.50 C203.00,81.96 205.66,73.71 208.13,70.56 L 210.27 67.84 L 205.48 62.98 C197.29,54.67 185.95,50.00 173.95,50.00 C170.17,50.00 169.00,49.64 169.00,48.47 C169.00,46.07 171.36,45.72 179.83,46.86 C191.47,48.42 197.70,51.15 206.19,58.39 L 213.61 64.73 L 215.93 62.86 C219.58,59.90 228.63,57.68 234.55,58.29 C242.05,59.07 247.41,62.21 256.77,71.34 L 265.04 79.40 L 259.80 84.70 L 254.56 90.01 L 261.28 96.78 C267.12,102.66 269.66,107.00 267.27,107.00 C266.87,107.00 263.27,103.75 259.27,99.77 L 252.00 92.55 L 249.27 95.27 L 246.55 98.00 L 253.41 104.91 C258.53,110.07 260.11,112.28 259.60,113.60 C259.04,115.07 257.65,114.11 251.46,107.96 L 243.99 100.54 L 240.77 103.77 L 237.54 106.99 L 244.89 114.39 C249.04,118.57 251.95,122.27 251.56,122.90 ZM 342.00 173.50 C342.00,175.65 330.11,175.41 323.00,173.12 C315.32,170.64 312.03,168.77 304.90,162.84 L 298.69 157.67 L 293.69 160.48 C286.78,164.36 277.62,165.00 270.00,162.12 C265.70,160.49 262.55,158.08 255.52,151.02 L 246.53 141.99 L 266.01 122.49 C276.72,111.77 285.97,103.00 286.57,103.00 C288.48,103.00 302.64,118.34 305.02,123.00 C306.54,125.98 307.46,129.86 307.75,134.50 C308.15,140.91 307.90,142.06 304.81,148.15 L 301.43 154.81 L 306.69 159.45 C315.15,166.90 328.12,172.00 338.64,172.00 C340.96,172.00 342.00,172.46 342.00,173.50 ZM 164.19 192.46 C170.65,194.23 175.84,193.65 182.70,190.38 C191.37,186.25 196.94,177.79 197.73,167.53 C198.47,157.98 195.77,152.21 186.01,142.51 L 177.99 134.53 L 158.50 154.00 L 139.02 173.46 L 144.76 179.32 C152.35,187.05 157.73,190.70 164.19,192.46 ZM 101.17 134.54 C105.07,138.64 108.54,142.00 108.89,142.00 C109.23,142.00 118.19,133.32 128.79,122.71 L 148.06 103.42 L 139.65 95.21 C129.92,85.70 126.03,83.74 117.00,83.72 C100.16,83.70 87.61,97.22 89.29,113.55 C90.04,120.76 92.92,125.86 101.17,134.54 ZM 272.66 159.37 C278.90,161.29 280.59,161.31 286.61,159.52 C292.85,157.67 299.18,152.33 301.96,146.57 C304.82,140.68 304.88,131.78 302.11,125.52 C300.01,120.76 288.62,108.00 286.48,108.00 C285.82,108.00 277.76,115.76 268.57,125.25 L 251.86 142.50 L 259.84 150.19 C265.87,156.00 269.00,158.25 272.66,159.37 ZM 217.77 107.25 C221.44,110.96 224.68,114.00 224.96,114.00 C226.01,114.00 259.00,80.48 259.00,79.42 C259.00,77.45 246.26,66.02 241.82,64.00 C237.00,61.82 229.54,61.45 223.59,63.10 C218.36,64.55 209.55,73.36 208.10,78.59 C205.14,89.24 207.83,97.19 217.77,107.25 Z" fill="rgb(127,37,42)"/>
<path d="M 0.00 131.00 L 0.00 0.00 L 212.00 0.00 L 424.00 0.00 L 424.00 131.00 L 424.00 262.00 L 212.00 262.00 L 0.00 262.00 L 0.00 131.00 ZM 240.38 208.46 C241.11,206.56 240.26,206.29 231.50,205.66 C219.49,204.79 209.84,200.47 199.05,191.10 L 194.59 187.24 L 198.02 180.87 C201.14,175.06 201.45,173.75 201.47,166.00 C201.51,154.38 198.97,149.38 187.03,137.51 L 177.99 128.53 L 155.99 150.51 C143.90,162.59 134.00,172.77 134.00,173.12 C134.00,174.32 152.13,191.50 155.64,193.64 C160.15,196.37 169.89,198.29 174.74,197.41 C179.32,196.57 188.49,192.64 189.43,191.11 C190.54,189.31 191.32,189.72 198.07,195.59 C208.92,205.04 220.61,209.74 233.64,209.92 C238.30,209.98 239.93,209.63 240.38,208.46 ZM 342.00 173.50 C342.00,172.46 340.96,172.00 338.64,172.00 C328.12,172.00 315.15,166.90 306.69,159.45 L 301.43 154.81 L 304.81 148.15 C307.90,142.06 308.15,140.91 307.75,134.50 C307.46,129.86 306.54,125.98 305.02,123.00 C302.64,118.34 288.48,103.00 286.57,103.00 C285.97,103.00 276.72,111.77 266.01,122.49 L 246.53 141.99 L 255.52 151.02 C262.55,158.08 265.70,160.49 270.00,162.12 C277.62,165.00 286.78,164.36 293.69,160.48 L 298.69 157.67 L 304.90 162.84 C312.03,168.77 315.32,170.64 323.00,173.12 C330.11,175.41 342.00,175.65 342.00,173.50 ZM 139.00 150.73 C139.00,150.03 135.40,145.87 130.99,141.49 L 122.99 133.54 L 138.23 118.27 L 153.47 103.01 L 144.48 93.97 C132.79,82.20 127.57,79.50 116.50,79.53 C109.52,79.54 107.70,79.95 102.19,82.72 L 95.87 85.91 L 88.78 79.95 C77.60,70.57 65.63,66.06 51.75,66.02 C46.81,66.00 46.00,66.26 46.00,67.85 C46.00,69.46 47.13,69.79 54.56,70.36 C68.70,71.45 77.17,75.11 88.00,84.79 L 92.50 88.82 L 89.00 95.16 C85.73,101.09 85.50,102.08 85.51,110.50 C85.52,118.36 85.87,120.16 88.25,124.70 C89.75,127.56 95.03,134.08 99.97,139.19 L 108.96 148.48 L 114.86 142.64 L 120.76 136.80 L 128.13 144.37 C134.99,151.41 139.00,153.75 139.00,150.73 ZM 251.56 122.90 C251.95,122.27 249.04,118.57 244.89,114.39 L 237.54 106.99 L 240.77 103.77 L 243.99 100.54 L 251.46 107.96 C257.65,114.11 259.04,115.07 259.60,113.60 C260.11,112.28 258.53,110.07 253.41,104.91 L 246.55 98.00 L 249.27 95.27 L 252.00 92.55 L 259.27 99.77 C263.27,103.75 266.87,107.00 267.27,107.00 C269.66,107.00 267.12,102.66 261.28,96.78 L 254.56 90.01 L 259.80 84.70 L 265.04 79.40 L 256.77 71.34 C247.41,62.21 242.05,59.07 234.55,58.29 C228.63,57.68 219.58,59.90 215.93,62.86 L 213.61 64.73 L 206.19 58.39 C197.70,51.15 191.47,48.42 179.83,46.86 C171.36,45.72 169.00,46.07 169.00,48.47 C169.00,49.64 170.17,50.00 173.95,50.00 C185.95,50.00 197.29,54.67 205.48,62.98 L 210.27 67.84 L 208.13 70.56 C205.66,73.71 203.00,81.96 203.00,86.50 C203.00,88.23 203.71,92.03 204.58,94.97 C205.90,99.42 207.70,101.87 215.52,109.90 L 224.89 119.50 L 229.96 114.52 L 235.03 109.55 L 242.26 116.77 C249.77,124.29 250.43,124.72 251.56,122.90 ZM 164.19 192.46 C157.73,190.70 152.35,187.05 144.76,179.32 L 139.02 173.46 L 158.50 154.00 L 177.99 134.53 L 186.01 142.51 C195.77,152.21 198.47,157.98 197.73,167.53 C196.94,177.79 191.37,186.25 182.70,190.38 C175.84,193.65 170.65,194.23 164.19,192.46 ZM 272.66 159.37 C269.00,158.25 265.87,156.00 259.84,150.19 L 251.86 142.50 L 268.57 125.25 C277.76,115.76 285.82,108.00 286.48,108.00 C288.62,108.00 300.01,120.76 302.11,125.52 C304.88,131.78 304.82,140.68 301.96,146.57 C299.18,152.33 292.85,157.67 286.61,159.52 C280.59,161.31 278.90,161.29 272.66,159.37 ZM 101.17 134.54 C92.92,125.86 90.04,120.76 89.29,113.55 C87.61,97.22 100.16,83.70 117.00,83.72 C126.03,83.74 129.92,85.70 139.65,95.21 L 148.06 103.42 L 128.79 122.71 C118.19,133.32 109.23,142.00 108.89,142.00 C108.54,142.00 105.07,138.64 101.17,134.54 ZM 217.77 107.25 C207.83,97.19 205.14,89.24 208.10,78.59 C209.55,73.36 218.36,64.55 223.59,63.10 C229.54,61.45 237.00,61.82 241.82,64.00 C246.26,66.02 259.00,77.45 259.00,79.42 C259.00,80.48 226.01,114.00 224.96,114.00 C224.68,114.00 221.44,110.96 217.77,107.25 Z" fill="rgb(254,254,254)"/>
</g>
</svg>